<?xml version="1.0" standalone="no"?>
<!DOCTYPE svg PUBLIC "-//W3C//DTD SVG 20010904//EN"
 "http://www.w3.org/TR/2001/REC-SVG-20010904/DTD/svg10.dtd">
<svg version="1.0" xmlns="http://www.w3.org/2000/svg"
 width="640.000000pt" height="640.000000pt" viewBox="0 0 640.000000 640.000000"
 preserveAspectRatio="xMidYMid meet">
<metadata>
Created by potrace 1.14, written by Peter Selinger 2001-2017
</metadata>
<g transform="translate(0.000000,640.000000) scale(0.100000,-0.100000)"
fill="#000000" stroke="none">
<path d="M5210 5890 c-72 -6 -128 -17 -180 -36 -207 -76 -403 -289 -505 -549
-61 -156 -68 -170 -82 -153 -6 7 -27 53 -48 102 -20 49 -45 101 -56 114 -10
14 -19 29 -19 35 0 20 -77 124 -125 168 -73 68 -219 167 -305 208 l-75 35
-175 0 c-169 1 -243 -7 -340 -37 -66 -19 -104 -44 -188 -119 -41 -38 -78 -68
-82 -68 -10 0 -87 -101 -154 -201 -29 -44 -56 -131 -82 -267 -3 -13 -16 -35
-29 -48 -24 -24 -26 -24 -230 -24 -209 0 -367 -17 -500 -55 -27 -8 -93 -23
-145 -33 -249 -50 -601 -241 -823 -446 -54 -50 -106 -95 -116 -101 -25 -14
-188 -201 -238 -273 -70 -101 -139 -249 -158 -340 -9 -46 -28 -111 -41 -145
-14 -34 -29 -89 -34 -122 -4 -33 -15 -87 -24 -121 -8 -33 -20 -145 -26 -250
-11 -182 -10 -195 15 -367 14 -97 30 -189 35 -203 6 -14 10 -38 10 -55 0 -43
36 -140 100 -269 32 -63 61 -126 65 -140 4 -13 32 -61 61 -107 30 -45 54 -86
54 -91 0 -5 -31 -31 -69 -57 -70 -47 -104 -83 -135 -142 -18 -36 -22 -157 -6
-212 13 -48 73 -107 145 -143 33 -17 70 -39 83 -49 13 -10 47 -25 75 -35 29
-9 120 -47 203 -85 136 -61 262 -102 389 -123 22 -4 73 -18 114 -32 107 -35
361 -75 541 -85 85 -4 337 -13 560 -19 431 -11 1071 0 1178 20 31 6 131 24
222 39 91 16 208 41 260 56 52 15 127 36 165 47 39 10 115 41 170 69 55 27
105 49 112 49 6 0 33 17 60 38 26 21 66 49 88 62 111 68 305 258 361 353 45
77 224 499 229 540 2 18 9 75 15 127 6 52 18 131 26 175 18 100 38 522 29 635
-7 99 -33 309 -39 319 -3 4 -7 34 -10 66 -9 94 -98 507 -142 656 -5 18 22 31
176 80 57 19 125 48 150 66 25 18 59 39 76 47 47 23 179 151 199 193 10 21 27
49 39 63 12 14 29 61 40 105 10 44 25 103 33 130 21 70 29 351 13 413 -18 67
-101 218 -153 279 -90 105 -163 175 -207 199 -25 13 -52 28 -60 33 -133 78
-261 99 -490 81z m-670 -2929 c20 -38 8 -179 -16 -188 -7 -3 -35 10 -61 29
-76 53 -78 55 -62 85 8 14 20 28 29 31 8 3 17 8 20 12 11 13 63 50 71 50 5 0
13 -9 19 -19z m-336 -52 c19 -23 16 -36 -19 -83 -18 -24 -45 -14 -46 16 0 13
-2 38 -5 56 -3 29 -2 32 24 32 16 0 35 -9 46 -21z"/>
</g>
</svg>
